<svg width="626" height="240" viewBox="0 0 626 240" xmlns="http://www.w3.org/2000/svg" role="img" aria-label="Commit activity heatmap, last 6 months">
<rect width="626" height="240" rx="12" fill="#FAF9F5"/>
<text x="28" y="40" font-family="'Hiragino Mincho ProN', 'Yu Mincho', Georgia, serif" font-size="20" letter-spacing="0.3" fill="#141413">Commit Activity</text>
<text x="598" y="40" text-anchor="end" font-family="-apple-system, BlinkMacSystemFont, 'Segoe UI', 'Hiragino Sans', sans-serif" font-size="12" fill="#6C6A64">660 contributions in the last 6 months</text>
<text x="62" y="68" font-family="-apple-system, BlinkMacSystemFont, 'Segoe UI', 'Hiragino Sans', sans-serif" font-size="11" fill="#8E8B82">Jan</text>
<text x="122" y="68" font-family="-apple-system, BlinkMacSystemFont, 'Segoe UI', 'Hiragino Sans', sans-serif" font-size="11" fill="#8E8B82">Feb</text>
<text x="202" y="68" font-family="-apple-system, BlinkMacSystemFont, 'Segoe UI', 'Hiragino Sans', sans-serif" font-size="11" fill="#8E8B82">Mar</text>
<text x="302" y="68" font-family="-apple-system, BlinkMacSystemFont, 'Segoe UI', 'Hiragino Sans', sans-serif" font-size="11" fill="#8E8B82">Apr</text>
<text x="382" y="68" font-family="-apple-system, BlinkMacSystemFont, 'Segoe UI', 'Hiragino Sans', sans-serif" font-size="11" fill="#8E8B82">May</text>
<text x="482" y="68" font-family="-apple-system, BlinkMacSystemFont, 'Segoe UI', 'Hiragino Sans', sans-serif" font-size="11" fill="#8E8B82">Jun</text>
<text x="562" y="68" font-family="-apple-system, BlinkMacSystemFont, 'Segoe UI', 'Hiragino Sans', sans-serif" font-size="11" fill="#8E8B82">Jul</text>
<text x="28" y="108" font-family="-apple-system, BlinkMacSystemFont, 'Segoe UI', 'Hiragino Sans', sans-serif" font-size="10" fill="#8E8B82">Mon</text>
<text x="28" y="148" font-family="-apple-system, BlinkMacSystemFont, 'Segoe UI', 'Hiragino Sans', sans-serif" font-size="10" fill="#8E8B82">Wed</text>
<text x="28" y="188" font-family="-apple-system, BlinkMacSystemFont, 'Segoe UI', 'Hiragino Sans', sans-serif" font-size="10" fill="#8E8B82">Fri</text>
<rect x="62" y="136" width="16" height="16" rx="4" fill="#F2D4C5"><title>2026-01-14: 1</title></rect>
<rect x="62" y="156" width="16" height="16" rx="4" fill="#F2D4C5"><title>2026-01-15: 1</title></rect>
<rect x="62" y="176" width="16" height="16" rx="4" fill="#CC785C"><title>2026-01-16: 6</title></rect>
<rect x="62" y="196" width="16" height="16" rx="4" fill="#E3A88C"><title>2026-01-17: 2</title></rect>
<rect x="82" y="76" width="16" height="16" rx="4" fill="#F2D4C5"><title>2026-01-18: 1</title></rect>
<rect x="82" y="96" width="16" height="16" rx="4" fill="#F2D4C5"><title>2026-01-19: 1</title></rect>
<rect x="82" y="116" width="16" height="16" rx="4" fill="#F2D4C5"><title>2026-01-20: 1</title></rect>
<rect x="82" y="136" width="16" height="16" rx="4" fill="#F2D4C5"><title>2026-01-21: 1</title></rect>
<rect x="82" y="156" width="16" height="16" rx="4" fill="#F2D4C5"><title>2026-01-22: 1</title></rect>
<rect x="82" y="176" width="16" height="16" rx="4" fill="#F2D4C5"><title>2026-01-23: 1</title></rect>
<rect x="82" y="196" width="16" height="16" rx="4" fill="#F2D4C5"><title>2026-01-24: 1</title></rect>
<rect x="102" y="76" width="16" height="16" rx="4" fill="#F2D4C5"><title>2026-01-25: 1</title></rect>
<rect x="102" y="96" width="16" height="16" rx="4" fill="#F2D4C5"><title>2026-01-26: 1</title></rect>
<rect x="102" y="116" width="16" height="16" rx="4" fill="#CC785C"><title>2026-01-27: 4</title></rect>
<rect x="102" y="136" width="16" height="16" rx="4" fill="#CC785C"><title>2026-01-28: 4</title></rect>
<rect x="102" y="156" width="16" height="16" rx="4" fill="#CC785C"><title>2026-01-29: 4</title></rect>
<rect x="102" y="176" width="16" height="16" rx="4" fill="#F2D4C5"><title>2026-01-30: 1</title></rect>
<rect x="102" y="196" width="16" height="16" rx="4" fill="#F0EBE1"><title>2026-01-31: 0</title></rect>
<rect x="122" y="76" width="16" height="16" rx="4" fill="#CC785C"><title>2026-02-01: 4</title></rect>
<rect x="122" y="96" width="16" height="16" rx="4" fill="#F2D4C5"><title>2026-02-02: 1</title></rect>
<rect x="122" y="116" width="16" height="16" rx="4" fill="#F2D4C5"><title>2026-02-03: 1</title></rect>
<rect x="122" y="136" width="16" height="16" rx="4" fill="#E3A88C"><title>2026-02-04: 3</title></rect>
<rect x="122" y="156" width="16" height="16" rx="4" fill="#F2D4C5"><title>2026-02-05: 1</title></rect>
<rect x="122" y="176" width="16" height="16" rx="4" fill="#F2D4C5"><title>2026-02-06: 1</title></rect>
<rect x="122" y="196" width="16" height="16" rx="4" fill="#A9583E"><title>2026-02-07: 21</title></rect>
<rect x="142" y="76" width="16" height="16" rx="4" fill="#E3A88C"><title>2026-02-08: 2</title></rect>
<rect x="142" y="96" width="16" height="16" rx="4" fill="#F2D4C5"><title>2026-02-09: 1</title></rect>
<rect x="142" y="116" width="16" height="16" rx="4" fill="#F2D4C5"><title>2026-02-10: 1</title></rect>
<rect x="142" y="136" width="16" height="16" rx="4" fill="#E3A88C"><title>2026-02-11: 3</title></rect>
<rect x="142" y="156" width="16" height="16" rx="4" fill="#F2D4C5"><title>2026-02-12: 1</title></rect>
<rect x="142" y="176" width="16" height="16" rx="4" fill="#CC785C"><title>2026-02-13: 6</title></rect>
<rect x="142" y="196" width="16" height="16" rx="4" fill="#F2D4C5"><title>2026-02-14: 1</title></rect>
<rect x="162" y="76" width="16" height="16" rx="4" fill="#F2D4C5"><title>2026-02-15: 1</title></rect>
<rect x="162" y="96" width="16" height="16" rx="4" fill="#F2D4C5"><title>2026-02-16: 1</title></rect>
<rect x="162" y="116" width="16" height="16" rx="4" fill="#F2D4C5"><title>2026-02-17: 1</title></rect>
<rect x="162" y="136" width="16" height="16" rx="4" fill="#F2D4C5"><title>2026-02-18: 1</title></rect>
<rect x="162" y="156" width="16" height="16" rx="4" fill="#F2D4C5"><title>2026-02-19: 1</title></rect>
<rect x="162" y="176" width="16" height="16" rx="4" fill="#F2D4C5"><title>2026-02-20: 1</title></rect>
<rect x="162" y="196" width="16" height="16" rx="4" fill="#F2D4C5"><title>2026-02-21: 1</title></rect>
<rect x="182" y="76" width="16" height="16" rx="4" fill="#F0EBE1"><title>2026-02-22: 0</title></rect>
<rect x="182" y="96" width="16" height="16" rx="4" fill="#F2D4C5"><title>2026-02-23: 1</title></rect>
<rect x="182" y="116" width="16" height="16" rx="4" fill="#F2D4C5"><title>2026-02-24: 1</title></rect>
<rect x="182" y="136" width="16" height="16" rx="4" fill="#F2D4C5"><title>2026-02-25: 1</title></rect>
<rect x="182" y="156" width="16" height="16" rx="4" fill="#A9583E"><title>2026-02-26: 8</title></rect>
<rect x="182" y="176" width="16" height="16" rx="4" fill="#E3A88C"><title>2026-02-27: 2</title></rect>
<rect x="182" y="196" width="16" height="16" rx="4" fill="#A9583E"><title>2026-02-28: 12</title></rect>
<rect x="202" y="76" width="16" height="16" rx="4" fill="#CC785C"><title>2026-03-01: 5</title></rect>
<rect x="202" y="96" width="16" height="16" rx="4" fill="#F2D4C5"><title>2026-03-02: 1</title></rect>
<rect x="202" y="116" width="16" height="16" rx="4" fill="#F2D4C5"><title>2026-03-03: 1</title></rect>
<rect x="202" y="136" width="16" height="16" rx="4" fill="#CC785C"><title>2026-03-04: 4</title></rect>
<rect x="202" y="156" width="16" height="16" rx="4" fill="#E3A88C"><title>2026-03-05: 3</title></rect>
<rect x="202" y="176" width="16" height="16" rx="4" fill="#F2D4C5"><title>2026-03-06: 1</title></rect>
<rect x="202" y="196" width="16" height="16" rx="4" fill="#F0EBE1"><title>2026-03-07: 0</title></rect>
<rect x="222" y="76" width="16" height="16" rx="4" fill="#A9583E"><title>2026-03-08: 13</title></rect>
<rect x="222" y="96" width="16" height="16" rx="4" fill="#E3A88C"><title>2026-03-09: 3</title></rect>
<rect x="222" y="116" width="16" height="16" rx="4" fill="#F2D4C5"><title>2026-03-10: 1</title></rect>
<rect x="222" y="136" width="16" height="16" rx="4" fill="#E3A88C"><title>2026-03-11: 2</title></rect>
<rect x="222" y="156" width="16" height="16" rx="4" fill="#F2D4C5"><title>2026-03-12: 1</title></rect>
<rect x="222" y="176" width="16" height="16" rx="4" fill="#F0EBE1"><title>2026-03-13: 0</title></rect>
<rect x="222" y="196" width="16" height="16" rx="4" fill="#A9583E"><title>2026-03-14: 8</title></rect>
<rect x="242" y="76" width="16" height="16" rx="4" fill="#A9583E"><title>2026-03-15: 8</title></rect>
<rect x="242" y="96" width="16" height="16" rx="4" fill="#E3A88C"><title>2026-03-16: 3</title></rect>
<rect x="242" y="116" width="16" height="16" rx="4" fill="#A9583E"><title>2026-03-17: 10</title></rect>
<rect x="242" y="136" width="16" height="16" rx="4" fill="#F2D4C5"><title>2026-03-18: 1</title></rect>
<rect x="242" y="156" width="16" height="16" rx="4" fill="#F2D4C5"><title>2026-03-19: 1</title></rect>
<rect x="242" y="176" width="16" height="16" rx="4" fill="#F2D4C5"><title>2026-03-20: 1</title></rect>
<rect x="242" y="196" width="16" height="16" rx="4" fill="#F2D4C5"><title>2026-03-21: 1</title></rect>
<rect x="262" y="76" width="16" height="16" rx="4" fill="#F2D4C5"><title>2026-03-22: 1</title></rect>
<rect x="262" y="96" width="16" height="16" rx="4" fill="#F2D4C5"><title>2026-03-23: 1</title></rect>
<rect x="262" y="116" width="16" height="16" rx="4" fill="#E3A88C"><title>2026-03-24: 2</title></rect>
<rect x="262" y="136" width="16" height="16" rx="4" fill="#F2D4C5"><title>2026-03-25: 1</title></rect>
<rect x="262" y="156" width="16" height="16" rx="4" fill="#F2D4C5"><title>2026-03-26: 1</title></rect>
<rect x="262" y="176" width="16" height="16" rx="4" fill="#F2D4C5"><title>2026-03-27: 1</title></rect>
<rect x="262" y="196" width="16" height="16" rx="4" fill="#A9583E"><title>2026-03-28: 8</title></rect>
<rect x="282" y="76" width="16" height="16" rx="4" fill="#CC785C"><title>2026-03-29: 6</title></rect>
<rect x="282" y="96" width="16" height="16" rx="4" fill="#F2D4C5"><title>2026-03-30: 1</title></rect>
<rect x="282" y="116" width="16" height="16" rx="4" fill="#A9583E"><title>2026-03-31: 14</title></rect>
<rect x="282" y="136" width="16" height="16" rx="4" fill="#A9583E"><title>2026-04-01: 11</title></rect>
<rect x="282" y="156" width="16" height="16" rx="4" fill="#CC785C"><title>2026-04-02: 4</title></rect>
<rect x="282" y="176" width="16" height="16" rx="4" fill="#A9583E"><title>2026-04-03: 9</title></rect>
<rect x="282" y="196" width="16" height="16" rx="4" fill="#F2D4C5"><title>2026-04-04: 1</title></rect>
<rect x="302" y="76" width="16" height="16" rx="4" fill="#E3A88C"><title>2026-04-05: 3</title></rect>
<rect x="302" y="96" width="16" height="16" rx="4" fill="#A9583E"><title>2026-04-06: 11</title></rect>
<rect x="302" y="116" width="16" height="16" rx="4" fill="#E3A88C"><title>2026-04-07: 3</title></rect>
<rect x="302" y="136" width="16" height="16" rx="4" fill="#CC785C"><title>2026-04-08: 6</title></rect>
<rect x="302" y="156" width="16" height="16" rx="4" fill="#A9583E"><title>2026-04-09: 12</title></rect>
<rect x="302" y="176" width="16" height="16" rx="4" fill="#A9583E"><title>2026-04-10: 7</title></rect>
<rect x="302" y="196" width="16" height="16" rx="4" fill="#A9583E"><title>2026-04-11: 11</title></rect>
<rect x="322" y="76" width="16" height="16" rx="4" fill="#E3A88C"><title>2026-04-12: 3</title></rect>
<rect x="322" y="96" width="16" height="16" rx="4" fill="#A9583E"><title>2026-04-13: 9</title></rect>
<rect x="322" y="116" width="16" height="16" rx="4" fill="#CC785C"><title>2026-04-14: 6</title></rect>
<rect x="322" y="136" width="16" height="16" rx="4" fill="#CC785C"><title>2026-04-15: 5</title></rect>
<rect x="322" y="156" width="16" height="16" rx="4" fill="#E3A88C"><title>2026-04-16: 3</title></rect>
<rect x="322" y="176" width="16" height="16" rx="4" fill="#A9583E"><title>2026-04-17: 10</title></rect>
<rect x="322" y="196" width="16" height="16" rx="4" fill="#E3A88C"><title>2026-04-18: 3</title></rect>
<rect x="342" y="76" width="16" height="16" rx="4" fill="#F2D4C5"><title>2026-04-19: 1</title></rect>
<rect x="342" y="96" width="16" height="16" rx="4" fill="#CC785C"><title>2026-04-20: 6</title></rect>
<rect x="342" y="116" width="16" height="16" rx="4" fill="#E3A88C"><title>2026-04-21: 2</title></rect>
<rect x="342" y="136" width="16" height="16" rx="4" fill="#CC785C"><title>2026-04-22: 4</title></rect>
<rect x="342" y="156" width="16" height="16" rx="4" fill="#CC785C"><title>2026-04-23: 4</title></rect>
<rect x="342" y="176" width="16" height="16" rx="4" fill="#E3A88C"><title>2026-04-24: 3</title></rect>
<rect x="342" y="196" width="16" height="16" rx="4" fill="#E3A88C"><title>2026-04-25: 2</title></rect>
<rect x="362" y="76" width="16" height="16" rx="4" fill="#E3A88C"><title>2026-04-26: 2</title></rect>
<rect x="362" y="96" width="16" height="16" rx="4" fill="#E3A88C"><title>2026-04-27: 3</title></rect>
<rect x="362" y="116" width="16" height="16" rx="4" fill="#CC785C"><title>2026-04-28: 6</title></rect>
<rect x="362" y="136" width="16" height="16" rx="4" fill="#A9583E"><title>2026-04-29: 9</title></rect>
<rect x="362" y="156" width="16" height="16" rx="4" fill="#A9583E"><title>2026-04-30: 7</title></rect>
<rect x="362" y="176" width="16" height="16" rx="4" fill="#E3A88C"><title>2026-05-01: 2</title></rect>
<rect x="362" y="196" width="16" height="16" rx="4" fill="#E3A88C"><title>2026-05-02: 2</title></rect>
<rect x="382" y="76" width="16" height="16" rx="4" fill="#E3A88C"><title>2026-05-03: 3</title></rect>
<rect x="382" y="96" width="16" height="16" rx="4" fill="#F2D4C5"><title>2026-05-04: 1</title></rect>
<rect x="382" y="116" width="16" height="16" rx="4" fill="#F2D4C5"><title>2026-05-05: 1</title></rect>
<rect x="382" y="136" width="16" height="16" rx="4" fill="#F2D4C5"><title>2026-05-06: 1</title></rect>
<rect x="382" y="156" width="16" height="16" rx="4" fill="#E3A88C"><title>2026-05-07: 2</title></rect>
<rect x="382" y="176" width="16" height="16" rx="4" fill="#CC785C"><title>2026-05-08: 6</title></rect>
<rect x="382" y="196" width="16" height="16" rx="4" fill="#F2D4C5"><title>2026-05-09: 1</title></rect>
<rect x="402" y="76" width="16" height="16" rx="4" fill="#E3A88C"><title>2026-05-10: 2</title></rect>
<rect x="402" y="96" width="16" height="16" rx="4" fill="#CC785C"><title>2026-05-11: 6</title></rect>
<rect x="402" y="116" width="16" height="16" rx="4" fill="#E3A88C"><title>2026-05-12: 3</title></rect>
<rect x="402" y="136" width="16" height="16" rx="4" fill="#E3A88C"><title>2026-05-13: 2</title></rect>
<rect x="402" y="156" width="16" height="16" rx="4" fill="#E3A88C"><title>2026-05-14: 2</title></rect>
<rect x="402" y="176" width="16" height="16" rx="4" fill="#F2D4C5"><title>2026-05-15: 1</title></rect>
<rect x="402" y="196" width="16" height="16" rx="4" fill="#F2D4C5"><title>2026-05-16: 1</title></rect>
<rect x="422" y="76" width="16" height="16" rx="4" fill="#CC785C"><title>2026-05-17: 5</title></rect>
<rect x="422" y="96" width="16" height="16" rx="4" fill="#E3A88C"><title>2026-05-18: 3</title></rect>
<rect x="422" y="116" width="16" height="16" rx="4" fill="#E3A88C"><title>2026-05-19: 3</title></rect>
<rect x="422" y="136" width="16" height="16" rx="4" fill="#CC785C"><title>2026-05-20: 4</title></rect>
<rect x="422" y="156" width="16" height="16" rx="4" fill="#F2D4C5"><title>2026-05-21: 1</title></rect>
<rect x="422" y="176" width="16" height="16" rx="4" fill="#E3A88C"><title>2026-05-22: 3</title></rect>
<rect x="422" y="196" width="16" height="16" rx="4" fill="#F0EBE1"><title>2026-05-23: 0</title></rect>
<rect x="442" y="76" width="16" height="16" rx="4" fill="#E3A88C"><title>2026-05-24: 2</title></rect>
<rect x="442" y="96" width="16" height="16" rx="4" fill="#CC785C"><title>2026-05-25: 5</title></rect>
<rect x="442" y="116" width="16" height="16" rx="4" fill="#CC785C"><title>2026-05-26: 5</title></rect>
<rect x="442" y="136" width="16" height="16" rx="4" fill="#F2D4C5"><title>2026-05-27: 1</title></rect>
<rect x="442" y="156" width="16" height="16" rx="4" fill="#CC785C"><title>2026-05-28: 4</title></rect>
<rect x="442" y="176" width="16" height="16" rx="4" fill="#A9583E"><title>2026-05-29: 9</title></rect>
<rect x="442" y="196" width="16" height="16" rx="4" fill="#CC785C"><title>2026-05-30: 6</title></rect>
<rect x="462" y="76" width="16" height="16" rx="4" fill="#CC785C"><title>2026-05-31: 4</title></rect>
<rect x="462" y="96" width="16" height="16" rx="4" fill="#A9583E"><title>2026-06-01: 9</title></rect>
<rect x="462" y="116" width="16" height="16" rx="4" fill="#A9583E"><title>2026-06-02: 7</title></rect>
<rect x="462" y="136" width="16" height="16" rx="4" fill="#E3A88C"><title>2026-06-03: 3</title></rect>
<rect x="462" y="156" width="16" height="16" rx="4" fill="#F2D4C5"><title>2026-06-04: 1</title></rect>
<rect x="462" y="176" width="16" height="16" rx="4" fill="#A9583E"><title>2026-06-05: 9</title></rect>
<rect x="462" y="196" width="16" height="16" rx="4" fill="#E3A88C"><title>2026-06-06: 3</title></rect>
<rect x="482" y="76" width="16" height="16" rx="4" fill="#F2D4C5"><title>2026-06-07: 1</title></rect>
<rect x="482" y="96" width="16" height="16" rx="4" fill="#CC785C"><title>2026-06-08: 4</title></rect>
<rect x="482" y="116" width="16" height="16" rx="4" fill="#F2D4C5"><title>2026-06-09: 1</title></rect>
<rect x="482" y="136" width="16" height="16" rx="4" fill="#E3A88C"><title>2026-06-10: 2</title></rect>
<rect x="482" y="156" width="16" height="16" rx="4" fill="#E3A88C"><title>2026-06-11: 3</title></rect>
<rect x="482" y="176" width="16" height="16" rx="4" fill="#E3A88C"><title>2026-06-12: 3</title></rect>
<rect x="482" y="196" width="16" height="16" rx="4" fill="#CC785C"><title>2026-06-13: 4</title></rect>
<rect x="502" y="76" width="16" height="16" rx="4" fill="#CC785C"><title>2026-06-14: 6</title></rect>
<rect x="502" y="96" width="16" height="16" rx="4" fill="#F2D4C5"><title>2026-06-15: 1</title></rect>
<rect x="502" y="116" width="16" height="16" rx="4" fill="#CC785C"><title>2026-06-16: 4</title></rect>
<rect x="502" y="136" width="16" height="16" rx="4" fill="#E3A88C"><title>2026-06-17: 2</title></rect>
<rect x="502" y="156" width="16" height="16" rx="4" fill="#A9583E"><title>2026-06-18: 9</title></rect>
<rect x="502" y="176" width="16" height="16" rx="4" fill="#E3A88C"><title>2026-06-19: 2</title></rect>
<rect x="502" y="196" width="16" height="16" rx="4" fill="#A9583E"><title>2026-06-20: 12</title></rect>
<rect x="522" y="76" width="16" height="16" rx="4" fill="#E3A88C"><title>2026-06-21: 3</title></rect>
<rect x="522" y="96" width="16" height="16" rx="4" fill="#E3A88C"><title>2026-06-22: 2</title></rect>
<rect x="522" y="116" width="16" height="16" rx="4" fill="#F2D4C5"><title>2026-06-23: 1</title></rect>
<rect x="522" y="136" width="16" height="16" rx="4" fill="#F2D4C5"><title>2026-06-24: 1</title></rect>
<rect x="522" y="156" width="16" height="16" rx="4" fill="#E3A88C"><title>2026-06-25: 3</title></rect>
<rect x="522" y="176" width="16" height="16" rx="4" fill="#A9583E"><title>2026-06-26: 8</title></rect>
<rect x="522" y="196" width="16" height="16" rx="4" fill="#CC785C"><title>2026-06-27: 5</title></rect>
<rect x="542" y="76" width="16" height="16" rx="4" fill="#F2D4C5"><title>2026-06-28: 1</title></rect>
<rect x="542" y="96" width="16" height="16" rx="4" fill="#F2D4C5"><title>2026-06-29: 1</title></rect>
<rect x="542" y="116" width="16" height="16" rx="4" fill="#CC785C"><title>2026-06-30: 6</title></rect>
<rect x="542" y="136" width="16" height="16" rx="4" fill="#E3A88C"><title>2026-07-01: 2</title></rect>
<rect x="542" y="156" width="16" height="16" rx="4" fill="#CC785C"><title>2026-07-02: 6</title></rect>
<rect x="542" y="176" width="16" height="16" rx="4" fill="#CC785C"><title>2026-07-03: 4</title></rect>
<rect x="542" y="196" width="16" height="16" rx="4" fill="#A9583E"><title>2026-07-04: 12</title></rect>
<rect x="562" y="76" width="16" height="16" rx="4" fill="#A9583E"><title>2026-07-05: 7</title></rect>
<rect x="562" y="96" width="16" height="16" rx="4" fill="#E3A88C"><title>2026-07-06: 3</title></rect>
<rect x="562" y="116" width="16" height="16" rx="4" fill="#CC785C"><title>2026-07-07: 5</title></rect>
<rect x="562" y="136" width="16" height="16" rx="4" fill="#A9583E"><title>2026-07-08: 9</title></rect>
<rect x="562" y="156" width="16" height="16" rx="4" fill="#CC785C"><title>2026-07-09: 6</title></rect>
<rect x="562" y="176" width="16" height="16" rx="4" fill="#A9583E"><title>2026-07-10: 7</title></rect>
<rect x="562" y="196" width="16" height="16" rx="4" fill="#F2D4C5"><title>2026-07-11: 1</title></rect>
<rect x="582" y="76" width="16" height="16" rx="4" fill="#F2D4C5"><title>2026-07-12: 1</title></rect>
<rect x="582" y="96" width="16" height="16" rx="4" fill="#F2D4C5"><title>2026-07-13: 1</title></rect>
<rect x="582" y="116" width="16" height="16" rx="4" fill="#E3A88C"><title>2026-07-14: 3</title></rect>
<rect x="582" y="136" width="16" height="16" rx="4" fill="#CC785C"><title>2026-07-15: 4</title></rect>
<text x="445" y="231" text-anchor="end" font-family="-apple-system, BlinkMacSystemFont, 'Segoe UI', 'Hiragino Sans', sans-serif" font-size="10" fill="#8E8B82">Less</text>
<rect x="453" y="222" width="12" height="12" rx="3" fill="#F0EBE1"/>
<rect x="468" y="222" width="12" height="12" rx="3" fill="#F2D4C5"/>
<rect x="483" y="222" width="12" height="12" rx="3" fill="#E3A88C"/>
<rect x="498" y="222" width="12" height="12" rx="3" fill="#CC785C"/>
<rect x="513" y="222" width="12" height="12" rx="3" fill="#A9583E"/>
<text x="536" y="231" font-family="-apple-system, BlinkMacSystemFont, 'Segoe UI', 'Hiragino Sans', sans-serif" font-size="10" fill="#8E8B82">More</text>
</svg>
