<svg xmlns="http://www.w3.org/2000/svg" xmlns:xlink="http://www.w3.org/1999/xlink" width="560" height="138" viewBox="0 0 560 138" fill="none" version="1.1"><defs><clipPath id="clip-lambda-dark"><rect x="412" y="14" width="44" height="44" rx="10.31"/></clipPath><clipPath id="clip-apigateway-dark"><rect x="464" y="14" width="44" height="44" rx="10.31"/></clipPath><clipPath id="clip-agentcore-dark"><rect x="0" y="94" width="44" height="44" rx="10.31"/></clipPath><clipPath id="clip-dynamodb-dark"><rect x="180" y="94" width="44" height="44" rx="10.31"/></clipPath><clipPath id="clip-s3-dark"><rect x="232" y="94" width="44" height="44" rx="10.31"/></clipPath><clipPath id="clip-cloudfront-dark"><rect x="412" y="94" width="44" height="44" rx="10.31"/></clipPath><clipPath id="clip-codepipeline-dark"><rect x="464" y="94" width="44" height="44" rx="10.31"/></clipPath></defs><text x="0" y="8" font-family="system-ui, -apple-system, 'Segoe UI', Helvetica, Arial, sans-serif" font-size="11" font-weight="600" letter-spacing="0.4" fill="#8b949e">Language</text><svg x="0" y="14" width="44" height="44" viewBox="0 0 256 256" overflow="hidden"><rect width="256" height="256" fill="#242938" rx="60"/><path fill="url(#python-dark-paint0_linear_2_47)" d="M127.279 29C76.5066 29 79.6772 51.018 79.6772 51.018L79.7338 73.8284H128.185V80.6772H60.4893C60.4893 80.6772 28 76.9926 28 128.222C28 179.452 56.3573 177.636 56.3573 177.636H73.2812V153.863C73.2812 153.863 72.369 125.506 101.186 125.506H149.24C149.24 125.506 176.239 125.942 176.239 99.4123V55.5461C176.239 55.5461 180.338 29 127.279 29ZM100.563 44.339C105.384 44.339 109.28 48.2351 109.28 53.0556C109.28 57.8761 105.384 61.7723 100.563 61.7723C95.7426 61.7723 91.8465 57.8761 91.8465 53.0556C91.8465 48.2351 95.7426 44.339 100.563 44.339Z"/><path fill="url(#python-dark-paint1_linear_2_47)" d="M128.721 227.958C179.493 227.958 176.323 205.941 176.323 205.941L176.266 183.13H127.815V176.281H195.511C195.511 176.281 228 179.966 228 128.736C228 77.5062 199.643 79.323 199.643 79.323H182.719V103.096C182.719 103.096 183.631 131.453 154.814 131.453H106.76C106.76 131.453 79.7607 131.016 79.7607 157.546V201.412C79.7607 201.412 75.6615 227.958 128.721 227.958ZM155.437 212.619C150.616 212.619 146.72 208.723 146.72 203.903C146.72 199.082 150.616 195.186 155.437 195.186C160.257 195.186 164.154 199.082 164.154 203.903C164.154 208.723 160.257 212.619 155.437 212.619Z"/><defs><linearGradient id="python-dark-paint0_linear_2_47" x1="47.22" x2="146.333" y1="46.896" y2="145.02" gradientUnits="userSpaceOnUse"><stop stop-color="#387EB8"/><stop offset="1" stop-color="#366994"/></linearGradient><linearGradient id="python-dark-paint1_linear_2_47" x1="108.056" x2="214.492" y1="109.905" y2="210.522" gradientUnits="userSpaceOnUse"><stop stop-color="#FFE052"/><stop offset="1" stop-color="#FFC331"/></linearGradient></defs></svg><svg x="52" y="14" width="44" height="44" viewBox="0 0 256 256" overflow="hidden"><rect width="256" height="256" fill="#007ACC" rx="60"/><path fill="#fff" d="M56.6112 128.849L56.5299 139.333H73.1902H89.8505L89.8505 186.673V234.012H101.635H113.419V186.673L113.419 139.333H130.079H146.739V129.052C146.739 123.363 146.618 118.609 146.455 118.487C146.333 118.325 126.056 118.243 101.472 118.284L56.7331 118.406L56.6112 128.849Z"/><path fill="#fff" d="M206.567 118.108C213.068 119.734 218.026 122.619 222.577 127.332C224.934 129.852 228.428 134.444 228.713 135.541C228.794 135.866 217.66 143.343 210.915 147.528C210.671 147.691 209.695 146.634 208.598 145.009C205.307 140.214 201.853 138.141 196.57 137.776C188.809 137.247 183.811 141.311 183.852 148.097C183.852 150.088 184.136 151.266 184.949 152.892C186.655 156.427 189.825 158.54 199.781 162.847C218.107 170.731 225.949 175.932 230.826 183.327C236.271 191.576 237.49 204.742 233.792 214.535C229.729 225.181 219.651 232.414 205.469 234.812C201.081 235.584 190.678 235.462 185.965 234.609C175.684 232.78 165.932 227.701 159.918 221.037C157.561 218.436 152.969 211.65 153.254 211.162C153.375 211 154.432 210.35 155.61 209.659C156.748 209.009 161.056 206.53 165.119 204.173L172.474 199.906L174.018 202.182C176.172 205.473 180.885 209.984 183.73 211.487C191.897 215.795 203.113 215.185 208.639 210.228C210.996 208.074 211.971 205.839 211.971 202.548C211.971 199.581 211.605 198.281 210.061 196.046C208.07 193.202 204.007 190.804 192.466 185.806C179.26 180.117 173.571 176.582 168.37 170.974C165.363 167.724 162.518 162.522 161.34 158.174C160.365 154.558 160.121 145.496 160.893 141.839C163.615 129.08 173.246 120.181 187.143 117.539C191.654 116.686 202.137 117.011 206.567 118.108Z"/></svg><text x="180" y="8" font-family="system-ui, -apple-system, 'Segoe UI', Helvetica, Arial, sans-serif" font-size="11" font-weight="600" letter-spacing="0.4" fill="#8b949e">Frontend</text><svg x="180" y="14" width="44" height="44" viewBox="0 0 256 256" overflow="hidden"><rect width="256" height="256" fill="#242938" rx="60"/><path fill="#00D8FF" d="M128.001 146.951C138.305 146.951 146.657 138.598 146.657 128.295C146.657 117.992 138.305 109.639 128.001 109.639C117.698 109.639 109.345 117.992 109.345 128.295C109.345 138.598 117.698 146.951 128.001 146.951Z"/><path fill-rule="evenodd" stroke="#00D8FF" stroke-width="8.911" d="M128.002 90.3633C153.05 90.3633 176.319 93.9575 193.864 99.9976C215.003 107.275 228 118.306 228 128.295C228 138.704 214.226 150.423 191.525 157.944C174.363 163.63 151.779 166.598 128.002 166.598C103.624 166.598 80.5389 163.812 63.1834 157.881C41.2255 150.376 28 138.506 28 128.295C28 118.387 40.4096 107.441 61.2515 100.175C78.8617 94.0353 102.705 90.3633 127.998 90.3633H128.002Z" clip-rule="evenodd"/><path fill-rule="evenodd" stroke="#00D8FF" stroke-width="8.911" d="M94.9811 109.438C107.495 87.7402 122.232 69.3783 136.23 57.1971C153.094 42.5206 169.144 36.7728 177.796 41.7623C186.813 46.9623 190.084 64.7496 185.259 88.1712C181.614 105.879 172.9 126.925 161.021 147.523C148.842 168.641 134.897 187.247 121.09 199.315C103.619 214.587 86.7284 220.114 77.8833 215.013C69.3003 210.067 66.0181 193.846 70.1356 172.161C73.6145 153.838 82.3451 131.349 94.977 109.438L94.9811 109.438Z" clip-rule="evenodd"/><path fill-rule="evenodd" stroke="#00D8FF" stroke-width="8.911" d="M95.0123 147.578C82.4633 125.904 73.9194 103.962 70.3531 85.7517C66.0602 63.8109 69.0954 47.0355 77.7401 42.0315C86.7485 36.8163 103.792 42.866 121.674 58.7437C135.194 70.7479 149.077 88.8052 160.99 109.383C173.204 130.481 182.358 151.856 185.919 169.844C190.425 192.608 186.778 210.001 177.941 215.116C169.367 220.08 153.676 214.825 136.945 200.427C122.809 188.263 107.685 169.468 95.0123 147.578Z" clip-rule="evenodd"/></svg><svg x="232" y="14" width="44" height="44" viewBox="0 0 256 256" overflow="hidden"><rect width="256" height="256" fill="#242938" rx="60"/><path fill="#41B883" d="M182 50H218L128 205.25L38 50H73.55H106.85L128 86L148.7 50H182Z"/><path fill="#41B883" d="M38 50L128 205.25L218 50H182L128 143.15L73.55 50H38Z"/><path fill="#fff" d="M73.55 50L128 143.6L182 50H148.7L128 86L106.85 50H73.55Z"/></svg><svg x="284" y="14" width="44" height="44" viewBox="0 0 256 256" overflow="hidden">
<rect width="256" height="256" rx="60" fill="#242938"/>
<path d="M227.088 57.6016L133.256 225.389C131.318 228.854 126.341 228.874 124.375 225.427L28.6823 57.6177C26.54 53.861 29.7524 49.3105 34.0096 50.0715L127.942 66.8613C128.541 66.9684 129.155 66.9674 129.754 66.8582L221.722 50.0955C225.965 49.3222 229.192 53.8374 227.088 57.6016Z" fill="url(#vite-dark-paint0_linear_307_179)"/>
<path d="M172.687 28.0492L103.249 41.6554C102.107 41.879 101.262 42.8462 101.194 44.007L96.9221 116.148C96.8216 117.847 98.3821 119.166 100.04 118.783L119.373 114.322C121.182 113.905 122.816 115.498 122.445 117.317L116.701 145.443C116.314 147.336 118.092 148.954 119.94 148.393L131.881 144.765C133.732 144.203 135.511 145.826 135.119 147.721L125.991 191.9C125.42 194.664 129.096 196.171 130.629 193.801L131.653 192.219L188.235 79.2992C189.183 77.4085 187.549 75.2526 185.472 75.6534L165.573 79.494C163.703 79.8545 162.112 78.113 162.639 76.2834L175.628 31.2582C176.156 29.4255 174.559 27.6825 172.687 28.0492Z" fill="url(#vite-dark-paint1_linear_307_179)"/>
<defs>
<linearGradient id="vite-dark-paint0_linear_307_179" x1="26.3459" y1="44.075" x2="143.127" y2="202.673" gradientUnits="userSpaceOnUse">
<stop stop-color="#41D1FF"/>
<stop offset="1" stop-color="#BD34FE"/>
</linearGradient>
<linearGradient id="vite-dark-paint1_linear_307_179" x1="122.551" y1="31.7433" x2="143.676" y2="176.66" gradientUnits="userSpaceOnUse">
<stop stop-color="#FFEA83"/>
<stop offset="0.0833333" stop-color="#FFDD35"/>
<stop offset="1" stop-color="#FFA800"/>
</linearGradient>
</defs>
</svg><text x="360" y="8" font-family="system-ui, -apple-system, 'Segoe UI', Helvetica, Arial, sans-serif" font-size="11" font-weight="600" letter-spacing="0.4" fill="#8b949e">Backend</text><svg x="360" y="14" width="44" height="44" viewBox="0 0 256 256" overflow="hidden">
<rect width="256" height="256" rx="60" fill="#049789"/>
<path d="M127.5 41C79.743 41 41 79.743 41 127.5C41 175.257 79.743 214 127.5 214C175.257 214 214 175.257 214 127.5C214 79.743 175.257 41 127.5 41ZM122.993 196.839V142.581H92.8306L136.167 58.1615V112.419H165.203L122.993 196.839Z" fill="white"/>
</svg><g clip-path="url(#clip-lambda-dark)"><svg x="412" y="14" width="44" height="44" viewBox="0 0 64 64" overflow="hidden"><g fill="none" fill-rule="evenodd"><path fill="#ed7100" d="M0 0h64v64H0z"/><path fill="#fff" d="M22.68 52h-9.106l10.264-21.59 4.562 9.451zm2.047-24.333a.99.99 0 0 0-.896-.564h-.003a.99.99 0 0 0-.896.569L11.097 52.569c-.147.31-.126.674.057.965.181.29.5.466.842.466H23.31a1 1 0 0 0 .9-.572l6.194-13.144a1 1 0 0 0-.005-.864zM51.008 52h-9.022L26.955 19.578a1 1 0 0 0-.903-.578h-5.924l.007-7h11.68l14.96 32.42c.163.354.516.58.904.58h3.33zm.996-9h-3.69l-14.96-32.42a1 1 0 0 0-.903-.58H19.14a1 1 0 0 0-.996.999l-.008 9A.993.993 0 0 0 19.131 21h6.286l15.03 32.422a1 1 0 0 0 .903.578h10.654c.55 0 .996-.448.996-1v-9c0-.552-.445-1-.996-1"/></g></svg></g><g clip-path="url(#clip-apigateway-dark)"><svg x="464" y="14" width="44" height="44" viewBox="0 0 64 64" overflow="hidden"><path fill="#8c4fff" d="M0 0h64v64H0z"/><path fill="#fff" fill-rule="evenodd" d="M28 44h3v-2h-3zm5 0h3v-2h-3zm-5-22h3v-2h-3zm5 0h3v-2h-3zm-11-9.26-10 5.834v27.808l10 5zM24 20h2v2h-2v20h2v2h-2v9a1 1 0 0 1-1.447.895l-12-6A1 1 0 0 1 10 47V18a1 1 0 0 1 .496-.864l12-7A1.002 1.002 0 0 1 24 11zm28-1.426L42 12.74v38.641l10-5zM54 18v29c0 .379-.214.725-.553.895l-12 6a1 1 0 0 1-.972-.044A1 1 0 0 1 40 53v-9h-2v-2h2V22h-2v-2h2v-9a.998.998 0 0 1 1.504-.864l12 7A1 1 0 0 1 54 18m-19.061 9.342-1.878-.684-4 11 1.878.684zm4.768 5.365a1 1 0 0 0 0-1.414l-3-3-1.414 1.414L37.586 32l-2.293 2.293 1.414 1.414zm-12.414 3-3-3a1 1 0 0 1 0-1.414l3-3 1.414 1.414L26.414 32l2.293 2.293z" clip-rule="evenodd"/></svg></g><text x="0" y="88" font-family="system-ui, -apple-system, 'Segoe UI', Helvetica, Arial, sans-serif" font-size="11" font-weight="600" letter-spacing="0.4" fill="#8b949e">AI / LLM</text><g clip-path="url(#clip-agentcore-dark)"><svg x="0" y="94" width="44" height="44" viewBox="0 0 64 64" overflow="hidden"><g clip-path="url(#agentcore-dark-svg-4d3916a8-aba0-49fa-81f4-fe915b05abbd-a)"><path fill="#01a88d" d="M0 0h64v64H0z"/><path fill="#fff" d="m53.372 21.073-2.475-.993-.964-2.446a1 1 0 0 0-1.862.002l-.973 2.48-2.46.954a1 1 0 0 0 .005 1.866l2.512.961.907 2.451a1 1 0 0 0 .923.653H49a1 1 0 0 0 .928-.626l1.01-2.506 2.422-.935a1.002 1.002 0 0 0 .012-1.861m-3.559 1.086c-.257.1-.463.302-.567.56l-.206.51-.167-.452a1 1 0 0 0-.58-.587l-.51-.195.447-.174a1 1 0 0 0 .569-.567l.205-.522.155.395c.091.31.33.559.634.665l.477.191zm1.402 8.694-7.207-2.89-2.81-7.125a1.24 1.24 0 0 0-1.164-.792c-.517 0-.975.311-1.164.793l-2.839 7.236-3.03 1.176V13.998a1 1 0 0 0-.552-.894l-6.002-2.998a1 1 0 0 0-.932.02l-9 5A1 1 0 0 0 16 16v7.382l-5.447 2.723A1 1 0 0 0 10 27v10a1 1 0 0 0 .485.857L15 40.567V47a1 1 0 0 0 .521.878l11 6a1 1 0 0 0 .994-.02l5-3A1 1 0 0 0 33 50V34.765l3.214 1.228 2.652 7.169c.18.487.633.808 1.153.816h.02c.512 0 .965-.305 1.16-.783l2.94-7.29 7.06-2.725c.483-.186.797-.64.801-1.158a1.24 1.24 0 0 0-.785-1.169M26.977 51.848l-3.203-1.746 3.74-2.245-1.029-1.714-4.747 2.848L17 46.406v-5.84l4.515-2.709-1.03-1.714L16 38.833l-4-2.4v-3.815l5.447-2.724-.894-1.788L12 30.382v-2.764l4.956-2.478L21 27.566v2.816l-3.447 1.723.894 1.79 3.556-1.778 3.554 1.76.886-1.792L23 30.38v-2.814l4.515-2.709A1 1 0 0 0 28 24v-5h-2v4.434l-4 2.4-4-2.4v-6.846l3-1.666V21h2v-7.19l3.024-1.68 4.978 2.486L31 36.45l-10.538 6.706 1.074 1.688 9.464-6.023L31 49.435zm16.038-17.653c-.258.1-.464.303-.568.56l-2.379 5.894-2.136-5.776a1 1 0 0 0-.58-.586L33 32.624v-1.229l4.162-1.615a1 1 0 0 0 .57-.567l2.303-5.87 2.207 5.596c.075.352.342.636.683.745L48.702 32z"/></g><defs><clipPath id="agentcore-dark-svg-4d3916a8-aba0-49fa-81f4-fe915b05abbd-a"><path fill="#fff" d="M0 0h64v64H0z"/></clipPath></defs></svg></g><rect x="52" y="94" width="44" height="44" rx="10.31" fill="#242938"/><g transform="translate(62.56 104.56) scale(0.9533)" fill="#7FC8FF"><path d="M13.796 0a6.93 6.93 0 0 0-4.91 2.019L5.451 5.455l3.273 3.27 3.432-3.432a2.284 2.284 0 0 1 3.277 0 2.28 2.28 0 0 1 0 3.275L12 12.001l3.273 3.273 3.433-3.435c2.692-2.692 2.692-7.127 0-9.82A6.92 6.92 0 0 0 13.796 0m-5.07 8.728-3.433 3.434c-2.692 2.693-2.692 7.126 0 9.819A6.92 6.92 0 0 0 10.203 24a6.93 6.93 0 0 0 4.911-2.02l3.432-3.432-3.271-3.272-3.433 3.433a2.284 2.284 0 0 1-3.277 0 2.28 2.28 0 0 1 0-3.276L12 12z"/></g><rect x="104" y="94" width="44" height="44" rx="10.31" fill="#242938"/><g transform="translate(114.56 104.56) scale(0.9533)" fill="#7FC8FF"><path d="M5 19H10A5 5 0 115 14ZM19 14A5 5 0 1114 19H19ZM10 5A5 5 0 105 10V5ZM19 5V10A5 5 0 1014 5Z"/></g><text x="180" y="88" font-family="system-ui, -apple-system, 'Segoe UI', Helvetica, Arial, sans-serif" font-size="11" font-weight="600" letter-spacing="0.4" fill="#8b949e">Data &amp; Storage</text><g clip-path="url(#clip-dynamodb-dark)"><svg x="180" y="94" width="44" height="44" viewBox="0 0 64 64" overflow="hidden"><g fill="none" fill-rule="evenodd"><path fill="#c925d1" d="M0 0h64v64H0z"/><path fill="#fff" d="M46.586 25.25H43a1 1 0 0 1-.822-.435 1.02 1.02 0 0 1-.114-.931l2.493-6.722h-8.913l-4.091 9.098H36c.32 0 .623.156.812.42.187.264.239.602.136.91l-3.66 11.101zm3.12-.297L31.709 43.15a.99.99 0 0 1-1.232.146 1.014 1.014 0 0 1-.423-1.18l4.56-13.833H30a1 1 0 0 1-.841-.463 1.02 1.02 0 0 1-.07-.966l5-11.12a1 1 0 0 1 .91-.593h11c.329 0 .636.163.823.435.187.273.23.62.115.931l-2.494 6.721H49a1 1 0 0 1 .924.624c.155.378.069.813-.217 1.102M41.002 44.22c-2.71 1.886-7.687 2.882-12.468 2.882-4.816 0-9.837-1.01-12.533-2.924l.001 3.816c0 1.664 4.768 3.984 12.532 3.984 7.495 0 12.468-2.702 12.468-4.49zm2.064-3.27c0 .187-.032.367-.064.546v5.993C43 51.079 36.51 54 28.533 54c-6.903 0-13.871-1.89-14.473-5.5h-.059L14 43.445V16.151h.001c0-3.996 7.487-6.151 14.532-6.151 3.94 0 7.73.64 10.397 1.756l-.766 1.868c-2.432-1.019-5.943-1.602-9.631-1.602-7.764 0-12.532 2.405-12.532 4.13 0 1.724 4.768 4.129 12.532 4.129.195 0 .399 0 .596-.007l.078 2.02c-.225.009-.45.009-.674.009-4.817 0-9.837-1.01-12.533-2.924v4.358h.001v.017c.005.53.489 1.143 1.364 1.72 1.982 1.288 5.55 2.168 9.539 2.351l-.091 2.02c-4.126-.19-7.75-1.069-10.086-2.416-.31.298-.726 1.056-.726 1.467 0 1.724 4.768 4.129 12.532 4.129.738 0 1.465-.025 2.162-.075l.14 2.017c-.743.054-1.518.08-2.302.08-4.817 0-9.837-1.009-12.533-2.924v3.67h.001c.005.547.489 1.16 1.364 1.737 2.268 1.474 6.549 2.393 11.168 2.393h.33v2.022h-.33c-4.778 0-9.86-1.008-12.532-2.543-.322.298 0 1.01 0 1.548 0 1.725 4.768 4.13 12.532 4.13s12.532-2.405 12.532-4.13c0-.61-.6-1.174-1.092-1.538-.41.247-.86.483-1.372.7l-.768-1.868c.53-.223.99-.463 1.364-.711 1.1-.734 1.804-1.779 1.804-2.175h2c0 .94-.621 1.947-1.417 2.775 1.192 1.04 1.48 2.078 1.48 2.817M17.142 48.39c.791.408 1.716.772 2.752 1.08l.564-1.94a14 14 0 0 1-2.406-.94zm2.752-11.05.564-1.94c-.916-.272-1.726-.589-2.406-.94l-.91 1.799c.791.41 1.716.772 2.752 1.08m-2.752-13.21.91-1.801c.68.352 1.49.668 2.406.94l-.564 1.94a16 16 0 0 1-2.752-1.08"/></g></svg></g><g clip-path="url(#clip-s3-dark)"><svg x="232" y="94" width="44" height="44" viewBox="0 0 64 64" overflow="hidden"><g fill="none" fill-rule="evenodd"><path fill="#7aa116" d="M0 0h64v64H0z"/><path fill="#fff" d="m47.759 33.948.234-1.817c2.173 1.254 2.849 1.99 3.044 2.293-.324.061-1.205.085-3.278-.476M30.499 21c-10.374 0-17.117-2.512-17.5-4.304v-.185c.35-1.119 6.14-4.51 17.5-4.51 11.34 0 17.133 3.38 17.5 4.504v.111C47.725 18.446 40.962 21 30.5 21m15.319 12.362c-4.765-1.565-10.906-4.383-13.224-5.474a2.09 2.09 0 0 0-2.082-1.982A2.097 2.097 0 0 0 28.418 28c0 1.154.94 2.094 2.094 2.094.457 0 .877-.152 1.22-.4 2.4 1.128 8.887 4.104 13.826 5.686l-1.721 13.344C43.583 50.352 38.919 52 30.497 52c-8.425 0-13.092-1.648-13.342-3.249l-3.72-28.937C16.945 21.915 23.749 23 30.5 23c6.75 0 13.554-1.085 17.065-3.185zM50 16.5c0-3.069-8.34-6.5-19.5-6.5S11 13.431 11 16.5v.543l4.174 31.99C15.874 53.516 26.123 54 30.497 54c4.372 0 14.616-.484 15.32-4.993l1.684-13.06c1.277.332 2.31.51 3.115.508.99 0 1.657-.252 2.08-.758.35-.416.489-.94.389-1.476-.228-1.22-1.682-2.509-4.715-4.177l-.1-.055L50 17.044z"/></g></svg></g><text x="360" y="88" font-family="system-ui, -apple-system, 'Segoe UI', Helvetica, Arial, sans-serif" font-size="11" font-weight="600" letter-spacing="0.4" fill="#8b949e">Infra / CI</text><svg x="360" y="94" width="44" height="44" viewBox="0 0 256 256" overflow="hidden"><rect width="256" height="256" fill="#2396ED" rx="60"/><path fill="#fff" d="M141.187 122.123H161.904V103.379H141.187V122.123ZM116.525 122.123H137.241V103.379H116.525V122.123ZM92.3554 122.123H113.072V103.379H92.3554V122.123ZM68.1859 122.123H88.4093V103.379H68.1859V122.123ZM43.5233 122.123H64.2399V103.379H43.5233V122.123ZM68.1859 99.4333H88.4093V80.6896H68.1859V99.4333ZM92.3554 99.4333H113.072V80.6896H92.3554V99.4333ZM116.525 99.4333H137.241V80.6896H116.525V99.4333ZM116.525 76.7436H137.241V58H116.525V76.7436ZM228 113.738C228 113.738 219.121 105.352 200.871 108.312C198.898 94.0075 183.607 85.6222 183.607 85.6222C183.607 85.6222 169.303 102.886 179.661 122.123C176.702 123.603 171.769 125.576 164.37 125.576H28.7257C26.2594 134.948 26.2594 197.097 94.3284 197.097C143.16 197.097 179.661 174.408 196.925 132.974C222.574 134.948 228 113.738 228 113.738Z"/></svg><g clip-path="url(#clip-cloudfront-dark)"><svg x="412" y="94" width="44" height="44" viewBox="0 0 64 64" overflow="hidden"><g fill="none" fill-rule="evenodd"><path fill="#8c4fff" d="M0 0h64v64H0z"/><path fill="#fff" d="M41.5 43.5c-1.103 0-2-.897-2-2s.897-2 2-2 2 .897 2 2-.897 2-2 2m0-6c-2.206 0-4 1.794-4 4s1.794 4 4 4 4-1.794 4-4-1.794-4-4-4m-19-5c-1.103 0-2-.897-2-2s.897-2 2-2 2 .897 2 2-.897 2-2 2m0-6c-2.206 0-4 1.794-4 4s1.794 4 4 4 4-1.794 4-4-1.794-4-4-4m22.889 20.624a29 29 0 0 0-.704-1.533l-1.789.895c.274.549.524 1.113.76 1.679a19 19 0 0 1-2.628 1.575c.356-.875.666-1.765.946-2.728l-1.92-.558a25.2 25.2 0 0 1-1.87 4.679A19.2 19.2 0 0 1 32.5 52c-3.035 0-5.933-.686-8.629-2.024-1.368-3.361-2.033-6.442-2.033-9.417 0-1.292.225-2.363.484-3.603q.096-.455.192-.932l-1.963-.386q-.092.465-.186.907c-.271 1.293-.527 2.515-.527 4.014 0 2.515.436 5.085 1.316 7.795A19.46 19.46 0 0 1 13 32.5c0-.111.01-.227.012-.339a24 24 0 0 1 4.842-.59l-.05-1.999c-1.635.04-3.11.207-4.641.512.918-7.401 6.049-13.69 13.16-16.065 1.55.799 2.697 1.505 3.812 2.351l1.209-1.594a24 24 0 0 0-2.198-1.477A19.6 19.6 0 0 1 32.5 13c2.532 0 5.032.494 7.349 1.439a33 33 0 0 0-1.606.532l.68 1.881c1.393-.503 2.485-.812 3.648-1.031C48.399 19.341 52 25.667 52 32.5a19.36 19.36 0 0 1-6.611 14.624m-2.381-33.375A21.4 21.4 0 0 0 32.5 11c-2.108 0-4.176.301-6.143.895-8.634 2.569-14.789 10.335-15.312 19.301-.035.429-.045.866-.045 1.304a21.47 21.47 0 0 0 11.354 18.955A21.54 21.54 0 0 0 32.5 54a21.1 21.1 0 0 0 6.937-1.157 21 21 0 0 0 6.209-3.336C50.955 45.399 54 39.2 54 32.5a21.52 21.52 0 0 0-10.992-18.751m-4.624 23.662-1.381 1.447c-2.981-2.843-5.956-4.712-9.366-5.883l.65-1.892c3.692 1.268 6.901 3.279 10.097 6.328m.06-15.047c2.838 4.328 4.436 9.08 4.749 14.124l-1.996.124c-.292-4.693-1.78-9.117-4.425-13.152zm-11.993 4.433-1.678-1.089c1.543-2.376 2.866-3.95 4.563-5.43l1.314 1.508c-1.547 1.349-2.764 2.801-4.199 5.011M34.5 16.5c1.103 0 2 .897 2 2s-.897 2-2 2-2-.897-2-2 .897-2 2-2m0 6c2.206 0 4-1.794 4-4s-1.794-4-4-4-4 1.794-4 4 1.794 4 4 4"/></g></svg></g><g clip-path="url(#clip-codepipeline-dark)"><svg x="464" y="94" width="44" height="44" viewBox="0 0 64 64" overflow="hidden"><g fill="none" fill-rule="evenodd"><path fill="#c925d1" d="M0 0h64v64H0z"/><path fill="#fff" d="M23 25h4v-2h-4zm6.732 23.123-1.849-.759 5.943-14.503 1.852.759zm6.629-4.463 4.117-3.612-4.113-3.566 1.311-1.51 4.978 4.317a1 1 0 0 1 .004 1.507l-4.978 4.368zm-15.783-3.54a1 1 0 0 1 .338-.756l4.962-4.386 1.324 1.498-4.103 3.628 4.077 3.516-1.307 1.514-4.944-4.263a1 1 0 0 1-.347-.751M48.535 28h-33.07c-1.751 0-3.189-1.311-3.418-3H21v-2h-9v-6.536A3.47 3.47 0 0 1 15.465 13h33.07A3.47 3.47 0 0 1 52 16.464V23H29v2h22.953c-.229 1.689-1.667 3-3.418 3M18 52h27V30H18zm30.535-41h-33.07A5.47 5.47 0 0 0 10 16.464v8.072A5.47 5.47 0 0 0 15.465 30H16v23a1 1 0 0 0 1 1h29a1 1 0 0 0 1-1V30h1.535A5.47 5.47 0 0 0 54 24.536v-8.072A5.47 5.47 0 0 0 48.535 11"/></g></svg></g><svg x="516" y="94" width="44" height="44" viewBox="0 0 256 256" overflow="hidden">
<rect width="256" height="256" rx="60" fill="#242938"/>
<path fill-rule="evenodd" clip-rule="evenodd" d="M76.0652 43C94.3271 43 109.13 57.8034 109.13 76.0652C109.13 94.3271 94.3271 109.13 76.0652 109.13C57.8034 109.13 43 94.3271 43 76.0652C43 57.8034 57.8034 43 76.0652 43Z" stroke="#2088FF" stroke-width="7.34783" stroke-linecap="round" stroke-linejoin="round"/>
<path fill-rule="evenodd" clip-rule="evenodd" d="M123.826 109.13C136 109.13 145.87 119 145.87 131.174C145.87 143.348 136 153.217 123.826 153.217C111.652 153.217 101.783 143.348 101.783 131.174C101.783 119 111.652 109.13 123.826 109.13Z" stroke="#2088FF" stroke-width="7.34783" stroke-linecap="round" stroke-linejoin="round"/>
<path fill-rule="evenodd" clip-rule="evenodd" d="M123.826 167.913C136 167.913 145.87 177.782 145.87 189.957C145.87 202.131 136 212 123.826 212C111.652 212 101.783 202.131 101.783 189.957C101.783 177.782 111.652 167.913 123.826 167.913Z" stroke="#2088FF" stroke-width="7.34783" stroke-linecap="round" stroke-linejoin="round"/>
<path fill-rule="evenodd" clip-rule="evenodd" d="M189.957 167.913C202.131 167.913 212 177.782 212 189.957C212 202.131 202.131 212 189.957 212C177.782 212 167.913 202.131 167.913 189.957C167.913 177.782 177.782 167.913 189.957 167.913Z" stroke="#79B8FF" stroke-width="7.34783" stroke-linecap="round" stroke-linejoin="round"/>
<path d="M131.308 126.056L120.032 137.317L114.555 131.859" stroke="#2088FF" stroke-width="7.34783" stroke-linecap="round" stroke-linejoin="round"/>
<path fill-rule="evenodd" clip-rule="evenodd" d="M189.957 109.13C202.131 109.13 212 119 212 131.174C212 143.348 202.131 153.217 189.957 153.217C177.782 153.217 167.913 143.348 167.913 131.174C167.913 119 177.782 109.13 189.957 109.13Z" stroke="#2088FF" stroke-width="7.34783" stroke-linecap="round" stroke-linejoin="round"/>
<path d="M197.438 126.056L186.162 137.317L180.686 131.859" stroke="#2088FF" stroke-width="7.34783" stroke-linecap="round" stroke-linejoin="round"/>
<path d="M65.0435 64.3532C65.0435 61.4617 68.2291 59.7035 70.6756 61.2446L89.461 73.0784C91.7583 74.5255 91.7462 77.8786 89.439 79.3093L70.6534 90.9574C68.206 92.4747 65.0435 90.7145 65.0435 87.8349V64.3532Z" stroke="#2088FF" stroke-width="7.34783" stroke-linecap="round" stroke-linejoin="round"/>
<path d="M72.3914 109.13V164.239C72.3914 178.442 84.0641 189.956 98.1087 189.956H101.783" stroke="#2088FF" stroke-width="7.34783" stroke-linecap="round" stroke-linejoin="round"/>
<path d="M101.595 134.847C103.624 134.847 105.269 133.203 105.269 131.173C105.269 129.144 103.624 127.5 101.595 127.5V134.847ZM68.7173 109.259C68.7173 123.391 80.1736 134.847 94.3054 134.847V127.5C84.2315 127.5 76.0651 119.333 76.0651 109.259H68.7173ZM94.3054 134.847H101.595V127.5H94.3054V134.847Z" fill="#2088FF"/>
<path d="M146.071 131.174H167.911" stroke="#2088FF" stroke-width="7.34783" stroke-linecap="round" stroke-linejoin="round"/>
<path fill-rule="evenodd" clip-rule="evenodd" d="M116.478 186.283C118.506 186.283 120.152 187.929 120.152 189.957C120.152 191.987 118.506 193.631 116.478 193.631C114.451 193.631 112.804 191.987 112.804 189.957C112.804 187.929 114.451 186.283 116.478 186.283Z" fill="#79B8FF"/>
<path fill-rule="evenodd" clip-rule="evenodd" d="M131.174 186.283C133.201 186.283 134.848 187.929 134.848 189.957C134.848 191.987 133.201 193.631 131.174 193.631C129.147 193.631 127.5 191.987 127.5 189.957C127.5 187.929 129.147 186.283 131.174 186.283Z" fill="#79B8FF"/>
<path d="M164.257 189.981L160.537 190.103" stroke="#79B8FF" stroke-width="7.34783" stroke-linecap="round"/>
</svg></svg>
