
  <svg width="441.75" height="48" viewBox="0 0 2356 256" fill="none" xmlns="http://www.w3.org/2000/svg" xmlns:xlink="http://www.w3.org/1999/xlink" version="1.1">
    
        <g transform="translate(0, 0)">
          <svg xmlns="http://www.w3.org/2000/svg" width="256" height="256" fill="none" viewBox="0 0 256 256"><rect width="256" height="256" fill="#F4F2ED" rx="60"/><path fill="url(#paint0_linear_2_56)" d="M127.279 29C76.5066 29 79.6772 51.018 79.6772 51.018L79.7338 73.8284H128.185V80.6772H60.4893C60.4893 80.6772 28 76.9926 28 128.222C28 179.452 56.3573 177.636 56.3573 177.636H73.2812V153.863C73.2812 153.863 72.369 125.506 101.186 125.506H149.24C149.24 125.506 176.239 125.942 176.239 99.4123V55.5461C176.239 55.5461 180.338 29 127.279 29ZM100.563 44.339C105.384 44.339 109.28 48.2351 109.28 53.0556C109.28 57.8761 105.384 61.7723 100.563 61.7723C95.7426 61.7723 91.8465 57.8761 91.8465 53.0556C91.8465 48.2351 95.7426 44.339 100.563 44.339Z"/><path fill="url(#paint1_linear_2_56)" d="M128.721 227.958C179.493 227.958 176.323 205.941 176.323 205.941L176.266 183.13H127.815V176.281H195.511C195.511 176.281 228 179.966 228 128.736C228 77.5062 199.643 79.323 199.643 79.323H182.719V103.096C182.719 103.096 183.631 131.453 154.814 131.453H106.76C106.76 131.453 79.7607 131.016 79.7607 157.546V201.412C79.7607 201.412 75.6615 227.958 128.721 227.958ZM155.437 212.619C150.616 212.619 146.72 208.723 146.72 203.903C146.72 199.082 150.616 195.186 155.437 195.186C160.257 195.186 164.154 199.082 164.154 203.903C164.154 208.723 160.257 212.619 155.437 212.619Z"/><defs><linearGradient id="paint0_linear_2_56" x1="47.22" x2="146.333" y1="46.896" y2="145.02" gradientUnits="userSpaceOnUse"><stop stop-color="#387EB8"/><stop offset="1" stop-color="#366994"/></linearGradient><linearGradient id="paint1_linear_2_56" x1="108.056" x2="214.492" y1="109.905" y2="210.522" gradientUnits="userSpaceOnUse"><stop stop-color="#FFE052"/><stop offset="1" stop-color="#FFC331"/></linearGradient></defs></svg>
        </g>
         
        <g transform="translate(300, 0)">
          <svg xmlns="http://www.w3.org/2000/svg" width="256" height="256" fill="none" viewBox="0 0 256 256"><rect width="256" height="256" fill="#007ACC" rx="60"/><path fill="#fff" d="M56.6112 128.849L56.5299 139.333H73.1902H89.8505L89.8505 186.673V234.012H101.635H113.419V186.673L113.419 139.333H130.079H146.739V129.052C146.739 123.363 146.618 118.609 146.455 118.487C146.333 118.325 126.056 118.243 101.472 118.284L56.7331 118.406L56.6112 128.849Z"/><path fill="#fff" d="M206.567 118.108C213.068 119.734 218.026 122.619 222.577 127.332C224.934 129.852 228.428 134.444 228.713 135.541C228.794 135.866 217.66 143.343 210.915 147.528C210.671 147.691 209.695 146.634 208.598 145.009C205.307 140.214 201.853 138.141 196.57 137.776C188.809 137.247 183.811 141.311 183.852 148.097C183.852 150.088 184.136 151.266 184.949 152.892C186.655 156.427 189.825 158.54 199.781 162.847C218.107 170.731 225.949 175.932 230.826 183.327C236.271 191.576 237.49 204.742 233.792 214.535C229.729 225.181 219.651 232.414 205.469 234.812C201.081 235.584 190.678 235.462 185.965 234.609C175.684 232.78 165.932 227.701 159.918 221.037C157.561 218.436 152.969 211.65 153.254 211.162C153.375 211 154.432 210.35 155.61 209.659C156.748 209.009 161.056 206.53 165.119 204.173L172.474 199.906L174.018 202.182C176.172 205.473 180.885 209.984 183.73 211.487C191.897 215.795 203.113 215.185 208.639 210.228C210.996 208.074 211.971 205.839 211.971 202.548C211.971 199.581 211.605 198.281 210.061 196.046C208.07 193.202 204.007 190.804 192.466 185.806C179.26 180.117 173.571 176.582 168.37 170.974C165.363 167.724 162.518 162.522 161.34 158.174C160.365 154.558 160.121 145.496 160.893 141.839C163.615 129.08 173.246 120.181 187.143 117.539C191.654 116.686 202.137 117.011 206.567 118.108Z"/></svg>
        </g>
         
        <g transform="translate(600, 0)">
          <svg xmlns="http://www.w3.org/2000/svg" width="256" height="256" fill="none" viewBox="0 0 256 256"><rect width="256" height="256" fill="#F4F2ED" rx="60"/><path fill="#00D8FF" d="M128.001 146.951C138.305 146.951 146.657 138.598 146.657 128.295C146.657 117.992 138.305 109.639 128.001 109.639C117.698 109.639 109.345 117.992 109.345 128.295C109.345 138.598 117.698 146.951 128.001 146.951Z"/><path fill-rule="evenodd" stroke="#00D8FF" stroke-width="8.911" d="M128.002 90.3633C153.05 90.3633 176.319 93.9575 193.864 99.9976C215.003 107.275 228 118.306 228 128.295C228 138.704 214.226 150.423 191.525 157.944C174.363 163.63 151.779 166.598 128.002 166.598C103.624 166.598 80.5389 163.812 63.1834 157.881C41.2255 150.376 28 138.506 28 128.295C28 118.387 40.4096 107.441 61.2515 100.175C78.8617 94.0353 102.705 90.3633 127.998 90.3633H128.002Z" clip-rule="evenodd"/><path fill-rule="evenodd" stroke="#00D8FF" stroke-width="8.911" d="M94.9811 109.438C107.495 87.7402 122.232 69.3783 136.23 57.1971C153.094 42.5206 169.144 36.7728 177.796 41.7623C186.813 46.9623 190.084 64.7496 185.259 88.1712C181.614 105.879 172.9 126.925 161.021 147.523C148.842 168.641 134.897 187.247 121.09 199.315C103.619 214.587 86.7284 220.114 77.8833 215.013C69.3003 210.067 66.0181 193.846 70.1356 172.161C73.6145 153.838 82.3451 131.349 94.977 109.438L94.9811 109.438Z" clip-rule="evenodd"/><path fill-rule="evenodd" stroke="#00D8FF" stroke-width="8.911" d="M95.0123 147.578C82.4633 125.904 73.9194 103.962 70.3531 85.7517C66.0602 63.8109 69.0954 47.0355 77.7401 42.0315C86.7485 36.8163 103.792 42.866 121.674 58.7437C135.194 70.7479 149.077 88.8052 160.99 109.383C173.204 130.481 182.358 151.856 185.919 169.844C190.425 192.608 186.778 210.001 177.941 215.116C169.367 220.08 153.676 214.825 136.945 200.427C122.809 188.263 107.685 169.468 95.0123 147.578Z" clip-rule="evenodd"/></svg>
        </g>
         
        <g transform="translate(900, 0)">
          <svg xmlns="http://www.w3.org/2000/svg" width="256" height="256" fill="none" viewBox="0 0 256 256"><rect width="256" height="256" fill="#F4F2EE" rx="60"/><path fill="#41B883" d="M182 50H218L128 205.25L38 50H73.55H106.85L128 86L148.7 50H182Z"/><path fill="#41B883" d="M38 50L128 205.25L218 50H182L128 143.15L73.55 50H38Z"/><path fill="#35495E" d="M73.55 50L128 143.6L182 50H148.7L128 86L106.85 50H73.55Z"/></svg>
        </g>
         
        <g transform="translate(1200, 0)">
          <svg width="256" height="256" viewBox="0 0 256 256" fill="none" xmlns="http://www.w3.org/2000/svg">
<rect width="256" height="256" rx="60" fill="#049789"/>
<path d="M127.5 41C79.743 41 41 79.743 41 127.5C41 175.257 79.743 214 127.5 214C175.257 214 214 175.257 214 127.5C214 79.743 175.257 41 127.5 41ZM122.993 196.839V142.581H92.8306L136.167 58.1615V112.419H165.203L122.993 196.839Z" fill="white"/>
</svg>

        </g>
         
        <g transform="translate(1500, 0)">
          <svg xmlns="http://www.w3.org/2000/svg" width="256" height="256" fill="none" viewBox="0 0 256 256"><rect width="256" height="256" fill="#F4F2ED" rx="60"/><path fill="#252F3E" d="M84.7447 111.961C84.7447 114.395 85.0079 116.368 85.4684 117.816C85.9947 119.263 86.6526 120.842 87.5737 122.553C87.9026 123.079 88.0342 123.605 88.0342 124.066C88.0342 124.724 87.6395 125.382 86.7842 126.039L82.6395 128.803C82.0474 129.197 81.4553 129.395 80.929 129.395C80.2711 129.395 79.6132 129.066 78.9553 128.474C78.0342 127.487 77.2447 126.434 76.5869 125.382C75.929 124.263 75.2711 123.013 74.5474 121.5C69.4158 127.553 62.9684 130.579 55.2053 130.579C49.679 130.579 45.2711 129 42.0474 125.842C38.8237 122.684 37.179 118.474 37.179 113.211C37.179 107.618 39.1526 103.079 43.1658 99.6579C47.179 96.2368 52.5079 94.5263 59.2842 94.5263C61.5211 94.5263 63.8237 94.7237 66.2579 95.0526C68.6921 95.3816 71.1921 95.9079 73.8237 96.5V91.6974C73.8237 86.6974 72.7711 83.2105 70.7316 81.1711C68.6263 79.1316 65.0737 78.1447 60.0079 78.1447C57.7053 78.1447 55.3368 78.4079 52.9026 79C50.4684 79.5921 48.1 80.3158 45.7974 81.2368C44.7447 81.6974 43.9553 81.9605 43.4947 82.0921C43.0342 82.2237 42.7053 82.2895 42.4421 82.2895C41.5211 82.2895 41.0605 81.6316 41.0605 80.25V77.0263C41.0605 75.9737 41.1921 75.1842 41.5211 74.7237C41.85 74.2632 42.4421 73.8026 43.3632 73.3421C45.6658 72.1579 48.429 71.1711 51.6526 70.3816C54.8763 69.5263 58.2974 69.1316 61.9158 69.1316C69.7447 69.1316 75.4684 70.9079 79.1526 74.4605C82.7711 78.0132 84.6132 83.4079 84.6132 90.6447V111.961H84.7447ZM58.0342 121.961C60.2053 121.961 62.4421 121.566 64.8105 120.776C67.179 119.987 69.2842 118.539 71.0605 116.566C72.1132 115.316 72.9026 113.934 73.2974 112.355C73.6921 110.776 73.9553 108.868 73.9553 106.632V103.868C72.0474 103.408 70.0079 103.013 67.9026 102.75C65.7974 102.487 63.7579 102.355 61.7184 102.355C57.3105 102.355 54.0868 103.211 51.9158 104.987C49.7447 106.763 48.6921 109.263 48.6921 112.553C48.6921 115.645 49.4816 117.947 51.1263 119.526C52.7053 121.171 55.0079 121.961 58.0342 121.961ZM110.863 129.066C109.679 129.066 108.889 128.868 108.363 128.408C107.837 128.013 107.376 127.092 106.982 125.842L91.5211 74.9868C91.1263 73.6711 90.929 72.8158 90.929 72.3553C90.929 71.3026 91.4553 70.7105 92.5079 70.7105H98.9553C100.205 70.7105 101.061 70.9079 101.521 71.3684C102.047 71.7632 102.442 72.6842 102.837 73.9342L113.889 117.487L124.153 73.9342C124.482 72.6184 124.876 71.7632 125.403 71.3684C125.929 70.9737 126.85 70.7105 128.034 70.7105H133.297C134.547 70.7105 135.403 70.9079 135.929 71.3684C136.455 71.7632 136.916 72.6842 137.179 73.9342L147.574 118.013L158.955 73.9342C159.35 72.6184 159.811 71.7632 160.271 71.3684C160.797 70.9737 161.653 70.7105 162.837 70.7105H168.955C170.008 70.7105 170.6 71.2368 170.6 72.3553C170.6 72.6842 170.534 73.0132 170.468 73.4079C170.403 73.8026 170.271 74.3289 170.008 75.0526L154.153 125.908C153.758 127.224 153.297 128.079 152.771 128.474C152.245 128.868 151.389 129.132 150.271 129.132H144.613C143.363 129.132 142.508 128.934 141.982 128.474C141.455 128.013 140.995 127.158 140.732 125.842L130.534 83.4079L120.403 125.776C120.074 127.092 119.679 127.947 119.153 128.408C118.626 128.868 117.705 129.066 116.521 129.066H110.863ZM195.403 130.842C191.982 130.842 188.561 130.447 185.271 129.658C181.982 128.868 179.416 128.013 177.705 127.026C176.653 126.434 175.929 125.776 175.666 125.184C175.403 124.592 175.271 123.934 175.271 123.342V119.987C175.271 118.605 175.797 117.947 176.784 117.947C177.179 117.947 177.574 118.013 177.968 118.145C178.363 118.276 178.955 118.539 179.613 118.803C181.85 119.789 184.284 120.579 186.85 121.105C189.482 121.632 192.047 121.895 194.679 121.895C198.824 121.895 202.047 121.171 204.284 119.724C206.521 118.276 207.705 116.171 207.705 113.474C207.705 111.632 207.113 110.118 205.929 108.868C204.745 107.618 202.508 106.5 199.284 105.447L189.745 102.487C184.942 100.974 181.389 98.7368 179.218 95.7763C177.047 92.8816 175.929 89.6579 175.929 86.2368C175.929 83.4737 176.521 81.0395 177.705 78.9342C178.889 76.8289 180.468 74.9868 182.442 73.5395C184.416 72.0263 186.653 70.9079 189.284 70.1184C191.916 69.3289 194.679 69 197.574 69C199.021 69 200.534 69.0658 201.982 69.2632C203.495 69.4605 204.876 69.7237 206.258 69.9868C207.574 70.3158 208.824 70.6447 210.008 71.0395C211.192 71.4342 212.113 71.8289 212.771 72.2237C213.692 72.75 214.35 73.2763 214.745 73.8684C215.139 74.3947 215.337 75.1184 215.337 76.0395V79.1316C215.337 80.5132 214.811 81.2368 213.824 81.2368C213.297 81.2368 212.442 80.9737 211.324 80.4474C207.574 78.7368 203.363 77.8816 198.692 77.8816C194.942 77.8816 191.982 78.4737 189.942 79.7237C187.903 80.9737 186.85 82.8816 186.85 85.5789C186.85 87.4211 187.508 89 188.824 90.25C190.139 91.5 192.574 92.75 196.061 93.8684L205.403 96.8289C210.139 98.3421 213.561 100.447 215.6 103.145C217.639 105.842 218.626 108.934 218.626 112.355C218.626 115.184 218.034 117.75 216.916 119.987C215.732 122.224 214.153 124.197 212.113 125.776C210.074 127.421 207.639 128.605 204.811 129.461C201.85 130.382 198.758 130.842 195.403 130.842Z"/><path fill="#F90" fill-rule="evenodd" d="M207.837 162.816C186.192 178.803 154.745 187.29 127.705 187.29C89.8105 187.29 55.6658 173.276 29.8763 149.987C27.8369 148.145 29.679 145.645 32.1132 147.092C60.0079 163.276 94.4158 173.079 130.008 173.079C154.021 173.079 180.403 168.079 204.679 157.816C208.297 156.171 211.389 160.184 207.837 162.816Z" clip-rule="evenodd"/><path fill="#F90" fill-rule="evenodd" d="M216.85 152.553C214.087 149 198.561 150.842 191.521 151.697C189.416 151.961 189.087 150.118 190.995 148.737C203.363 140.053 223.692 142.553 226.061 145.447C228.429 148.408 225.403 168.737 213.824 178.474C212.047 179.987 210.337 179.197 211.126 177.224C213.758 170.711 219.613 156.039 216.85 152.553Z" clip-rule="evenodd"/></svg>
        </g>
         
        <g transform="translate(1800, 0)">
          <svg xmlns="http://www.w3.org/2000/svg" width="256" height="256" fill="none" viewBox="0 0 256 256"><rect width="256" height="256" fill="#2396ED" rx="60"/><path fill="#fff" d="M141.187 122.123H161.904V103.379H141.187V122.123ZM116.525 122.123H137.241V103.379H116.525V122.123ZM92.3554 122.123H113.072V103.379H92.3554V122.123ZM68.1859 122.123H88.4093V103.379H68.1859V122.123ZM43.5233 122.123H64.2399V103.379H43.5233V122.123ZM68.1859 99.4333H88.4093V80.6896H68.1859V99.4333ZM92.3554 99.4333H113.072V80.6896H92.3554V99.4333ZM116.525 99.4333H137.241V80.6896H116.525V99.4333ZM116.525 76.7436H137.241V58H116.525V76.7436ZM228 113.738C228 113.738 219.121 105.352 200.871 108.312C198.898 94.0075 183.607 85.6222 183.607 85.6222C183.607 85.6222 169.303 102.886 179.661 122.123C176.702 123.603 171.769 125.576 164.37 125.576H28.7257C26.2594 134.948 26.2594 197.097 94.3284 197.097C143.16 197.097 179.661 174.408 196.925 132.974C222.574 134.948 228 113.738 228 113.738Z"/></svg>
        </g>
         
        <g transform="translate(2100, 0)">
          <svg width="256" height="256" viewBox="0 0 256 256" fill="none" xmlns="http://www.w3.org/2000/svg">
<rect width="256" height="256" rx="60" fill="#F4F4ED"/>
<path fill-rule="evenodd" clip-rule="evenodd" d="M76.0652 43C94.3271 43 109.13 57.8034 109.13 76.0652C109.13 94.3271 94.3271 109.13 76.0652 109.13C57.8034 109.13 43 94.3271 43 76.0652C43 57.8034 57.8034 43 76.0652 43Z" stroke="#2088FF" stroke-width="7.34783" stroke-linecap="round" stroke-linejoin="round"/>
<path fill-rule="evenodd" clip-rule="evenodd" d="M123.826 109.13C136 109.13 145.87 119 145.87 131.174C145.87 143.348 136 153.217 123.826 153.217C111.652 153.217 101.783 143.348 101.783 131.174C101.783 119 111.652 109.13 123.826 109.13Z" stroke="#2088FF" stroke-width="7.34783" stroke-linecap="round" stroke-linejoin="round"/>
<path fill-rule="evenodd" clip-rule="evenodd" d="M123.826 167.913C136 167.913 145.87 177.782 145.87 189.957C145.87 202.131 136 212 123.826 212C111.652 212 101.783 202.131 101.783 189.957C101.783 177.782 111.652 167.913 123.826 167.913Z" stroke="#2088FF" stroke-width="7.34783" stroke-linecap="round" stroke-linejoin="round"/>
<path fill-rule="evenodd" clip-rule="evenodd" d="M189.957 167.913C202.131 167.913 212 177.782 212 189.957C212 202.131 202.131 212 189.957 212C177.782 212 167.913 202.131 167.913 189.957C167.913 177.782 177.782 167.913 189.957 167.913Z" stroke="#79B8FF" stroke-width="7.34783" stroke-linecap="round" stroke-linejoin="round"/>
<path d="M131.308 126.056L120.032 137.317L114.555 131.859" stroke="#2088FF" stroke-width="7.34783" stroke-linecap="round" stroke-linejoin="round"/>
<path fill-rule="evenodd" clip-rule="evenodd" d="M189.957 109.13C202.131 109.13 212 119 212 131.174C212 143.348 202.131 153.217 189.957 153.217C177.782 153.217 167.913 143.348 167.913 131.174C167.913 119 177.782 109.13 189.957 109.13Z" stroke="#2088FF" stroke-width="7.34783" stroke-linecap="round" stroke-linejoin="round"/>
<path d="M197.438 126.056L186.162 137.317L180.686 131.859" stroke="#2088FF" stroke-width="7.34783" stroke-linecap="round" stroke-linejoin="round"/>
<path d="M65.0435 64.3532C65.0435 61.4617 68.2291 59.7035 70.6756 61.2446L89.461 73.0784C91.7583 74.5255 91.7462 77.8786 89.439 79.3093L70.6534 90.9574C68.206 92.4747 65.0435 90.7145 65.0435 87.8349V64.3532Z" stroke="#2088FF" stroke-width="7.34783" stroke-linecap="round" stroke-linejoin="round"/>
<path d="M72.3911 109.13V164.239C72.3911 178.442 84.0639 189.956 98.1085 189.956H101.782" stroke="#2088FF" stroke-width="7.34783" stroke-linecap="round" stroke-linejoin="round"/>
<path d="M101.595 134.847C103.624 134.847 105.269 133.203 105.269 131.173C105.269 129.144 103.624 127.5 101.595 127.5V134.847ZM68.7173 109.259C68.7173 123.391 80.1736 134.847 94.3054 134.847V127.5C84.2315 127.5 76.0651 119.333 76.0651 109.259H68.7173ZM94.3054 134.847H101.595V127.5H94.3054V134.847Z" fill="#2088FF"/>
<path d="M146.071 131.174H167.911" stroke="#2088FF" stroke-width="7.34783" stroke-linecap="round" stroke-linejoin="round"/>
<path fill-rule="evenodd" clip-rule="evenodd" d="M116.478 186.283C118.505 186.283 120.152 187.929 120.152 189.957C120.152 191.987 118.505 193.631 116.478 193.631C114.451 193.631 112.804 191.987 112.804 189.957C112.804 187.929 114.451 186.283 116.478 186.283Z" fill="#79B8FF"/>
<path fill-rule="evenodd" clip-rule="evenodd" d="M131.174 186.283C133.201 186.283 134.848 187.929 134.848 189.957C134.848 191.987 133.201 193.631 131.174 193.631C129.147 193.631 127.5 191.987 127.5 189.957C127.5 187.929 129.147 186.283 131.174 186.283Z" fill="#79B8FF"/>
<path d="M164.257 189.981L160.537 190.103" stroke="#79B8FF" stroke-width="7.34783" stroke-linecap="round"/>
</svg>

        </g>
        
  </svg>
  